<svg id="shopping_cart-24px" xmlns="http://www.w3.org/2000/svg" width="60" height="60" viewBox="0 0 60 60">
  <path id="Path_1" data-name="Path 1" d="M0,0H60V60H0Z" fill="none"/>
  <path id="Path_2" data-name="Path 2" d="M43.535,45.18a5.356,5.356,0,0,0-4.977,3.3,5.427,5.427,0,0,0,1.136,5.9,5.328,5.328,0,0,0,5.843,1.188,5.433,5.433,0,0,0,1.769-8.8A5.31,5.31,0,0,0,43.535,45.18Zm-26.585,0a5.356,5.356,0,0,0-4.977,3.3,5.427,5.427,0,0,0,1.136,5.9,5.328,5.328,0,0,0,5.843,1.188,5.433,5.433,0,0,0,1.769-8.8A5.31,5.31,0,0,0,16.95,45.18Zm0-8.1,2.924-5.4h19.8a5.28,5.28,0,0,0,4.646-2.78L56.03,7.4H12.192L9.693,2H1V7.4H6.317l9.566,20.484L7.969,42.48H48.857v-5.4Z" transform="translate(1.507 1.014)" fill="#3299D9"/>
</svg>
